PathFileType	4	(X/Y/Z)	../output/dynamic_cam2_scaled.trc
DataRate	CameraRate	NumFrames	NumMarkers	Units	OrigDataRate	OrigDataStartFrame	OrigNumFrames
60.0	60.0	117	3	m	60.0	314	784
Frame#	Time	r_acromion			r_humerus_epicondyle			r_radius_styloid		
		X1	Y1	Z1	X2	Y2	Z2	X3	Y3	Z3	

314	5.21667	-0.00137	0.83637	0.14325	0.22112	0.78859	0.03973	0.50239	0.88259	0.15231
315	5.23333	-0.00133	0.83644	0.14356	0.22216	0.78858	0.04228	0.50555	0.87971	0.15186
316	5.25000	-0.00131	0.83650	0.15355	0.22383	0.78815	0.05619	0.51250	0.87010	0.15903
317	5.26667	-0.00127	0.83658	0.15680	0.22360	0.78808	0.05891	0.51609	0.86568	0.15405
318	5.28333	-0.00126	0.83669	0.16018	0.22343	0.78797	0.06198	0.51802	0.86371	0.15196
319	5.30000	-0.00126	0.83670	0.15765	0.22217	0.78818	0.05653	0.51779	0.85159	0.15250
320	5.31667	-0.00126	0.83671	0.15653	0.22260	0.78777	0.05656	0.52261	0.84834	0.13989
321	5.33333	-0.00127	0.83672	0.15571	0.22229	0.78721	0.05535	0.52284	0.84627	0.13783
322	5.35000	-0.00125	0.83672	0.14777	0.22159	0.78710	0.04590	0.51570	0.84027	0.15218
323	5.36667	-0.00123	0.83671	0.14460	0.22280	0.78624	0.04579	0.51517	0.83705	0.15785
324	5.38333	-0.00123	0.83673	0.13386	0.22010	0.78633	0.02912	0.51479	0.83084	0.13777
325	5.40000	-0.00123	0.83674	0.13235	0.22124	0.78567	0.03039	0.51583	0.82760	0.14033
326	5.41667	-0.00127	0.83674	0.13291	0.22085	0.78526	0.03037	0.51584	0.82614	0.13959
327	5.43333	-0.00130	0.83677	0.13463	0.22061	0.78491	0.03185	0.51683	0.82582	0.13769
328	5.45000	-0.00132	0.83678	0.14577	0.22507	0.78339	0.05412	0.51324	0.82289	0.18070
329	5.46667	-0.00134	0.83679	0.14869	0.22480	0.78287	0.05673	0.51400	0.82268	0.18084
330	5.48333	-0.00151	0.83684	0.15618	0.22501	0.78201	0.06573	0.51086	0.81973	0.19798
331	5.50000	-0.00154	0.83690	0.15591	0.22498	0.78146	0.06580	0.50734	0.81711	0.20586
332	5.51667	-0.00157	0.83694	0.15446	0.22463	0.78104	0.06387	0.50878	0.81658	0.20032
333	5.53333	-0.00159	0.83695	0.15383	0.22448	0.78081	0.06305	0.50895	0.81634	0.19884
334	5.55000	-0.00163	0.83696	0.15342	0.22388	0.78075	0.06129	0.50983	0.81647	0.19386
335	5.56667	-0.00164	0.83697	0.15321	0.22345	0.78057	0.06020	0.50980	0.81648	0.19189
336	5.58333	-0.00165	0.83696	0.15240	0.22378	0.78017	0.06044	0.51236	0.81659	0.18699
337	5.60000	-0.00166	0.83698	0.15313	0.22318	0.77945	0.06019	0.51240	0.81578	0.18532
338	5.61667	-0.00166	0.83699	0.15440	0.22300	0.77870	0.06150	0.51238	0.81475	0.18632
339	5.63333	-0.00166	0.83699	0.15446	0.22315	0.77803	0.06236	0.51177	0.81389	0.18899
340	5.65000	-0.00166	0.83700	0.15738	0.22330	0.77753	0.06596	0.50957	0.81317	0.19787
341	5.66667	-0.00167	0.83700	0.15922	0.22303	0.77725	0.06736	0.51058	0.81307	0.19641
342	5.68333	-0.00165	0.83701	0.16016	0.22253	0.77726	0.06702	0.51202	0.81290	0.19168
343	5.70000	-0.00150	0.83706	0.16035	0.22237	0.77679	0.06681	0.51320	0.80935	0.18920
344	5.71667	-0.00140	0.83708	0.16009	0.22219	0.77664	0.06600	0.51562	0.80688	0.18264
345	5.73333	-0.00126	0.83712	0.16002	0.22066	0.77683	0.06195	0.51843	0.80474	0.16765
346	5.75000	-0.00123	0.83714	0.15854	0.22038	0.77672	0.05986	0.51853	0.80317	0.16489
347	5.76667	-0.00111	0.83717	0.15795	0.22089	0.77638	0.06038	0.51817	0.79994	0.16853
348	5.78333	-0.00095	0.83721	0.15720	0.22157	0.77599	0.06108	0.51798	0.79424	0.17257
349	5.80000	-0.00093	0.83722	0.15530	0.22158	0.77564	0.05941	0.51815	0.79113	0.17090
350	5.81667	-0.00093	0.83722	0.15502	0.22185	0.77527	0.05999	0.51625	0.78880	0.17733
351	5.83333	-0.00093	0.83724	0.15397	0.22186	0.77497	0.05919	0.51609	0.78646	0.17718
352	5.85000	-0.00093	0.83724	0.15400	0.22205	0.77447	0.05999	0.51544	0.78498	0.18011
353	5.86667	-0.00093	0.83725	0.15423	0.22209	0.77402	0.06063	0.51513	0.78380	0.18169
354	5.88333	-0.00099	0.83726	0.15414	0.22188	0.77373	0.06037	0.51617	0.78284	0.17840
355	5.90000	-0.00112	0.83723	0.15386	0.22184	0.77332	0.06056	0.51639	0.78222	0.17795
356	5.91667	-0.00118	0.83723	0.15320	0.22205	0.77290	0.06085	0.51665	0.78199	0.17811
357	5.93333	-0.00126	0.83718	0.15222	0.22204	0.77276	0.06011	0.51686	0.78195	0.17680
358	5.95000	-0.00131	0.83715	0.15065	0.22097	0.77288	0.05598	0.51826	0.78242	0.16620
359	5.96667	-0.00132	0.83709	0.15026	0.22047	0.77286	0.05445	0.51829	0.78278	0.16320
360	5.98333	-0.00133	0.83700	0.14962	0.22046	0.77285	0.05372	0.51848	0.78306	0.16188
361	6.00000	-0.00135	0.83695	0.14974	0.22054	0.77271	0.05414	0.51908	0.78322	0.16081
362	6.01667	-0.00136	0.83690	0.14970	0.22036	0.77264	0.05371	0.51940	0.78348	0.15897
363	6.03333	-0.00139	0.83681	0.14847	0.22070	0.77258	0.05334	0.51927	0.78351	0.15993
364	6.05000	-0.00142	0.83673	0.14869	0.22064	0.77259	0.05342	0.51900	0.78371	0.16058
365	6.06667	-0.00142	0.83667	0.14872	0.22073	0.77255	0.05366	0.51896	0.78389	0.16115
366	6.08333	-0.00143	0.83665	0.14802	0.22098	0.77248	0.05357	0.51896	0.78387	0.16172
367	6.10000	-0.00143	0.83664	0.14809	0.22107	0.77241	0.05392	0.51888	0.78387	0.16255
368	6.11667	-0.00143	0.83661	0.14763	0.22129	0.77237	0.05398	0.51921	0.78386	0.16229
369	6.13333	-0.00143	0.83656	0.14772	0.22129	0.77240	0.05405	0.51924	0.78392	0.16228
370	6.15000	-0.00143	0.83654	0.14777	0.22122	0.77237	0.05393	0.51928	0.78400	0.16186
371	6.16667	-0.00143	0.83652	0.14783	0.22107	0.77232	0.05365	0.51936	0.78416	0.16093
372	6.18333	-0.00144	0.83649	0.14718	0.22014	0.77251	0.05068	0.51970	0.78461	0.15429
373	6.20000	-0.00144	0.83646	0.14658	0.21989	0.77257	0.04946	0.51940	0.78476	0.15321
374	6.21667	-0.00148	0.83642	0.14661	0.21989	0.77256	0.04956	0.51932	0.78483	0.15354
375	6.23333	-0.00150	0.83640	0.14664	0.21995	0.77255	0.04976	0.51965	0.78490	0.15294
376	6.25000	-0.00152	0.83636	0.14686	0.22036	0.77242	0.05104	0.51980	0.78482	0.15496
377	6.26667	-0.00153	0.83634	0.14688	0.22031	0.77238	0.05098	0.52104	0.78493	0.15111
378	6.28333	-0.00153	0.83633	0.14818	0.21991	0.77233	0.05140	0.52141	0.79556	0.14721
379	6.30000	-0.00153	0.83628	0.14963	0.22021	0.77224	0.05355	0.52302	0.80249	0.14305
380	6.31667	-0.00153	0.83622	0.15110	0.21969	0.77233	0.05375	0.52348	0.80709	0.13817
381	6.33333	-0.00153	0.83621	0.15309	0.21978	0.77222	0.05598	0.52334	0.81046	0.13971
382	6.35000	-0.00153	0.83620	0.15306	0.22026	0.77203	0.05720	0.52221	0.81298	0.14535
383	6.36667	-0.00152	0.83619	0.15298	0.22019	0.77201	0.05691	0.52154	0.81545	0.14591
384	6.38333	-0.00151	0.83615	0.15401	0.22112	0.77170	0.06030	0.51908	0.81710	0.15920
385	6.40000	-0.00145	0.83610	0.15851	0.21914	0.77178	0.05999	0.51532	0.83171	0.15644
386	6.41667	-0.00141	0.83608	0.16044	0.21876	0.77170	0.06103	0.51338	0.83811	0.15804
387	6.43333	-0.00131	0.83605	0.16221	0.21961	0.77137	0.06469	0.51155	0.84052	0.16771
388	6.45000	-0.00134	0.83598	0.16226	0.21871	0.77160	0.06259	0.51342	0.85446	0.14567
389	6.46667	-0.00135	0.83595	0.16288	0.21757	0.77187	0.06057	0.51212	0.86104	0.13743
390	6.48333	-0.00137	0.83594	0.16230	0.21698	0.77182	0.05878	0.51324	0.86529	0.12292
391	6.50000	-0.00190	0.83585	0.14877	0.21042	0.76836	0.03535	0.48835	0.88912	0.12915
392	6.51667	-0.00206	0.83576	0.14468	0.20951	0.76523	0.03171	0.47993	0.89817	0.13084
393	6.53333	-0.00219	0.83567	0.14216	0.20796	0.76362	0.02752	0.47515	0.90453	0.12435
394	6.55000	-0.00223	0.83561	0.14215	0.20758	0.76221	0.02773	0.47228	0.90661	0.12624
395	6.56667	-0.00231	0.83560	0.14332	0.20677	0.75823	0.03019	0.46416	0.91745	0.12517
396	6.58333	-0.00228	0.83573	0.14592	0.20459	0.75270	0.03273	0.42777	0.93777	0.16143
397	6.60000	-0.00230	0.83594	0.14715	0.20325	0.74952	0.03410	0.41342	0.94102	0.17473
398	6.61667	-0.00232	0.83616	0.14736	0.20289	0.74686	0.03594	0.40916	0.94350	0.17526
399	6.63333	-0.00235	0.83641	0.14716	0.20254	0.74429	0.03746	0.40827	0.94587	0.17036
400	6.65000	-0.00202	0.83685	0.15466	0.20525	0.73841	0.05542	0.39749	0.94513	0.20008
401	6.66667	-0.00182	0.83714	0.16044	0.20476	0.73603	0.06245	0.39548	0.94886	0.20010
402	6.68333	-0.00157	0.83715	0.15962	0.20145	0.73161	0.05891	0.37277	0.96333	0.19150
403	6.70000	-0.00141	0.83716	0.15854	0.20035	0.72945	0.05758	0.36269	0.96352	0.19714
404	6.71667	-0.00134	0.83717	0.15825	0.19814	0.72845	0.05391	0.35936	0.96640	0.18810
405	6.73333	-0.00134	0.83716	0.15841	0.19746	0.72744	0.05382	0.35903	0.96716	0.18440
406	6.75000	-0.00134	0.83703	0.14941	0.19757	0.72427	0.04833	0.35520	0.96911	0.17414
407	6.76667	-0.00131	0.83695	0.14967	0.19681	0.72285	0.04853	0.34967	0.96442	0.18599
408	6.78333	-0.00123	0.83688	0.14995	0.19677	0.72105	0.05055	0.34804	0.96201	0.19081
409	6.80000	-0.00123	0.83650	0.14931	0.19289	0.71966	0.04365	0.33534	0.98143	0.15228
410	6.81667	-0.00120	0.83617	0.14919	0.19118	0.71842	0.04138	0.32974	0.98491	0.14339
411	6.83333	-0.00117	0.83596	0.15132	0.18987	0.71748	0.04192	0.32644	0.98529	0.14316
412	6.85000	-0.00078	0.83589	0.15283	0.19015	0.71276	0.04850	0.31614	0.97842	0.16756
413	6.86667	-0.00055	0.83588	0.15284	0.18905	0.71059	0.04866	0.31303	0.97667	0.16886
414	6.88333	-0.00034	0.83584	0.15282	0.18804	0.70877	0.04856	0.31137	0.97481	0.16954
415	6.90000	-0.00030	0.83578	0.16504	0.18836	0.70810	0.06206	0.29600	0.98063	0.18356
416	6.91667	-0.00030	0.83575	0.16850	0.18935	0.70655	0.06930	0.29124	0.97826	0.19741
417	6.93333	-0.00028	0.83573	0.16937	0.18713	0.70654	0.06599	0.28860	0.98277	0.18438
418	6.95000	0.00018	0.83571	0.17018	0.18506	0.70724	0.06149	0.27913	0.98813	0.17493
419	6.96667	0.00049	0.83570	0.16983	0.18466	0.70659	0.06069	0.27625	0.98984	0.17023
420	6.98333	0.00143	0.83541	0.17060	0.18674	0.70284	0.06770	0.26237	0.98172	0.19856
421	7.00000	0.00179	0.83513	0.16951	0.18778	0.70157	0.06915	0.25815	0.97793	0.20805
422	7.01667	0.00181	0.83478	0.16857	0.18870	0.70126	0.06985	0.25702	0.97428	0.21620
423	7.03333	0.00185	0.83442	0.16611	0.19230	0.69838	0.07823	0.25824	0.96767	0.23236
424	7.05000	0.00186	0.83378	0.16224	0.20510	0.69043	0.13688	0.25826	0.92527	0.34340
425	7.06667	0.00181	0.83349	0.15970	0.20589	0.68955	0.14831	0.25679	0.92409	0.35572
426	7.08333	0.00160	0.83346	0.15579	0.20610	0.68968	0.15814	0.24579	0.91743	0.37534
427	7.10000	0.00160	0.83322	0.15207	0.20587	0.68930	0.15968	0.24125	0.91232	0.38245
428	7.11667	0.00158	0.83294	0.15281	0.20580	0.68921	0.16447	0.23993	0.91149	0.38818
429	7.13333	0.00156	0.83259	0.15367	0.20601	0.68913	0.16457	0.24068	0.91539	0.38417
430	7.15000	0.00136	0.83248	0.15402	0.20511	0.68839	0.16896	0.23759	0.91307	0.39052
